<svg xmlns="http://www.w3.org/2000/svg" viewBox="0 0 614.21 622.8"><defs><style>.cls-1{isolation:isolate;}.cls-2{opacity:0.2;mix-blend-mode:multiply;}.cls-3{fill:#f0edd2;opacity:0;}.cls-4{fill:#e8e5cb;opacity:0.04;}.cls-5{fill:#e0ddc4;opacity:0.08;}.cls-6{fill:#d8d5bd;opacity:0.12;}.cls-7{fill:#d0cdb7;opacity:0.15;}.cls-8{fill:#c9c5b0;opacity:0.19;}.cls-9{fill:#c1bda9;opacity:0.23;}.cls-10{fill:#b9b6a2;opacity:0.27;}.cls-11{fill:#b1ae9b;opacity:0.31;}.cls-12{fill:#a9a694;opacity:0.35;}.cls-13{fill:#a19e8e;opacity:0.38;}.cls-14{fill:#999687;opacity:0.42;}.cls-15{fill:#918e80;opacity:0.46;}.cls-16{fill:#8a8679;opacity:0.5;}.cls-17{fill:#827e72;opacity:0.54;}.cls-18{fill:#7a766b;opacity:0.58;}.cls-19{fill:#726e64;opacity:0.62;}.cls-20{fill:#6a665e;opacity:0.65;}.cls-21{fill:#625e57;opacity:0.69;}.cls-22{fill:#5a5650;opacity:0.73;}.cls-23{fill:#524f49;opacity:0.77;}.cls-24{fill:#4a4742;opacity:0.81;}.cls-25{fill:#433f3b;opacity:0.85;}.cls-26{fill:#3b3735;opacity:0.88;}.cls-27{fill:#332f2e;opacity:0.92;}.cls-28{fill:#2b2727;opacity:0.96;}.cls-29{fill:#231f20;}.cls-30{fill:#fff;stroke:#fff;stroke-miterlimit:10;}</style></defs><title>envelope</title><g class="cls-1"><g id="mail"><g class="cls-2"><rect class="cls-3" x="182.72" y="227" width="276.88" height="294" transform="translate(-65.56 679.73) rotate(-87.68)"/><rect class="cls-4" x="182.45" y="226.75" width="276.81" height="293.93" transform="translate(-65.56 679.15) rotate(-87.68)"/><rect class="cls-5" x="182.18" y="226.5" width="276.74" height="293.86" transform="translate(-65.57 678.58) rotate(-87.68)"/><rect class="cls-6" x="181.91" y="226.25" width="276.68" height="293.79" transform="translate(-65.57 678) rotate(-87.68)"/><rect class="cls-7" x="181.64" y="226" width="276.61" height="293.71" transform="translate(-65.58 677.43) rotate(-87.68)"/><rect class="cls-8" x="181.37" y="225.75" width="276.54" height="293.64" transform="translate(-65.58 676.85) rotate(-87.68)"/><rect class="cls-9" x="181.1" y="225.51" width="276.48" height="293.57" transform="matrix(0.04, -1, 1, 0.04, -65.59, 676.28)"/><rect class="cls-10" x="180.84" y="225.26" width="276.41" height="293.5" transform="translate(-65.59 675.7) rotate(-87.68)"/><rect class="cls-11" x="180.57" y="225.01" width="276.34" height="293.43" transform="matrix(0.04, -1, 1, 0.04, -65.6, 675.13)"/><rect class="cls-12" x="180.3" y="224.76" width="276.27" height="293.36" transform="translate(-65.6 674.55) rotate(-87.68)"/><rect class="cls-13" x="180.03" y="224.51" width="276.21" height="293.29" transform="translate(-65.61 673.98) rotate(-87.68)"/><rect class="cls-14" x="179.76" y="224.26" width="276.14" height="293.22" transform="translate(-65.61 673.4) rotate(-87.68)"/><rect class="cls-15" x="179.49" y="224.01" width="276.07" height="293.14" transform="translate(-65.62 672.83) rotate(-87.68)"/><rect class="cls-16" x="179.22" y="223.76" width="276.01" height="293.07" transform="translate(-65.62 672.25) rotate(-87.68)"/><rect class="cls-17" x="178.96" y="223.51" width="275.94" height="293" transform="translate(-65.63 671.68) rotate(-87.68)"/><rect class="cls-18" x="178.69" y="223.26" width="275.87" height="292.93" transform="translate(-65.63 671.1) rotate(-87.68)"/><rect class="cls-19" x="178.42" y="223.01" width="275.8" height="292.86" transform="translate(-65.64 670.53) rotate(-87.68)"/><rect class="cls-20" x="178.15" y="222.76" width="275.74" height="292.79" transform="translate(-65.64 669.95) rotate(-87.68)"/><rect class="cls-21" x="177.88" y="222.51" width="275.67" height="292.72" transform="translate(-65.65 669.38) rotate(-87.68)"/><rect class="cls-22" x="177.61" y="222.26" width="275.6" height="292.65" transform="translate(-65.66 668.8) rotate(-87.68)"/><rect class="cls-23" x="177.35" y="222.01" width="275.54" height="292.57" transform="translate(-65.66 668.23) rotate(-87.68)"/><rect class="cls-24" x="177.08" y="221.76" width="275.47" height="292.5" transform="translate(-65.67 667.65) rotate(-87.68)"/><rect class="cls-25" x="176.81" y="221.52" width="275.4" height="292.43" transform="translate(-65.67 667.07) rotate(-87.68)"/><rect class="cls-26" x="176.54" y="221.27" width="275.33" height="292.36" transform="translate(-65.68 666.5) rotate(-87.68)"/><rect class="cls-27" x="176.27" y="221.02" width="275.27" height="292.29" transform="matrix(0.04, -1, 1, 0.04, -65.68, 665.92)"/><rect class="cls-28" x="176" y="220.77" width="275.2" height="292.22" transform="translate(-65.69 665.35) rotate(-87.68)"/><rect class="cls-29" x="175.73" y="220.52" width="275.13" height="292.15" transform="translate(-65.69 664.77) rotate(-87.68)"/></g><rect class="cls-30" x="174.86" y="219.59" width="276.88" height="294" transform="translate(-65.69 664.77) rotate(-87.68)"/></g></g></svg>