<svg id="圖層_1" data-name="圖層 1" xmlns="http://www.w3.org/2000/svg" viewBox="0 0 1664 1587"><defs><style>.cls-1{fill:#ffe000;}</style></defs><title>yellow-star-o</title><path class="cls-1" d="M1201,1004l306-297-422-62L896,263,707,645,285,707l306,297-73,421,378-199,377,199Zm527-357q0,22.05-26,48l-363,354,86,500a145.62,145.62,0,0,1,1,20q0,50-41,50c-12.7,0-26-4-40-12L896,1371,447,1607c-14.7,8-28,12-40,12-14,0-24.5-4.8-31.5-14.5S365,1583,365,1569c0-4,.7-10.7,2-20l86-500L89,695q-25-27-25-48,0-37.05,56-46l502-73L847,73q19.05-40.95,49-41t49,41l225,455,502,73Q1728,610,1728,647Z" transform="translate(-64 -32)"/></svg>